inDegrees=yes
name=ik_lifting_orientations
DataType=double
version=3
OpenSimVersion=4.5-2024-01-10-34fd6af
endheader
time	pelvis_tilt	pelvis_list	pelvis_rotation	pelvis_tx	pelvis_ty	pelvis_tz	hip_flexion_r	hip_adduction_r	hip_rotation_r	knee_angle_r	knee_angle_r_beta	ankle_angle_r	subtalar_angle_r	mtp_angle_r	hip_flexion_l	hip_adduction_l	hip_rotation_l	knee_angle_l	knee_angle_l_beta	ankle_angle_l	subtalar_angle_l	mtp_angle_l	lumbar_extension	lumbar_bending	lumbar_rotation	arm_flex_r	arm_add_r	arm_rot_r	elbow_flex_r	pro_sup_r	wrist_flex_r	wrist_dev_r	arm_flex_l	arm_add_l	arm_rot_l	elbow_flex_l	pro_sup_l	wrist_flex_l	wrist_dev_l
0.78	-1.165435135670962	-1.162057815152361	-90.70132414311388	0	0.9399999998679526	0	44.58295334406024	-10.30315026974508	0	59.65727436373209	1.04121586041273	-5.083668338422473	0	0	44.58295334406024	-10.30315026974508	0	59.65727436373209	1.04121586041273	-5.083668338422473	0	0	-8.539147860625691	8.48249655235967	-0.7732761023774344	8.23448025987086	-8.791215684178134	8.50166905863834	7.578644684710428	2.631998014077182	0	0	0	-10.38022187420373	0	87.41128239054817	2.631998014077182	0	0
0.79	-1.365003602127175	-1.346778342373857	-90.95391342825366	0	0.9399999998679526	0	44.58307493325177	-10.30284138028335	0	59.65735278757473	1.041217229166996	-5.083557141564113	0	0	44.58307493325177	-10.30284138028335	0	59.65735278757473	1.041217229166996	-5.083557141564113	0	0	-9.892266076572398	9.624398702452643	0.5082058951048561	9.026897074045033	-9.785501263460951	8.094896646724564	7.998716014853497	2.631463778754796	0	0	0	-10.38091248191482	0	87.41180779215787	2.631463778754796	0	0
0.8	-1.424491568736729	-1.41741293673672	-91.00420904146546	0	0.9399999998679526	0	44.58320154957331	-10.30251909709154	0	59.65743430020292	1.04121865183074	-5.083441092812572	0	0	44.58320154957331	-10.30251909709154	0	59.65743430020292	1.04121865183074	-5.083441092812572	0	0	-10.38039730772368	10.0053140627757	1.017808076279862	9.236986053882974	-10.06204639011895	8.11391032870047	8.326132932067328	2.630907829942	0	0	0	-10.38163074057123	0	87.41235454816935	2.630907829942	0	0
0.8100000000000001	-1.336968355341629	-1.326256597981626	-90.71473361327436	0	0.9399999998679526	0	44.5833101845955	-10.30224342681526	0	59.65750437205968	1.041219874815354	-5.083341904117428	0	0	44.5833101845955	-10.30224342681526	0	59.65750437205968	1.041219874815354	-5.083341904117428	0	0	-10.99574655635793	10.54910840828142	1.766523108525938	9.778735837254674	-10.7540734019627	7.808693932696512	8.539169094274836	2.630430449233736	0	0	0	-10.38224790224233	0	87.41282403528251	2.630430449233736	0	0
0.82	-1.127541861498809	-1.122101343963302	-89.86623231970191	0	0.9399999998679526	0	44.5834379877046	-10.3019195167183	0	59.65758684920181	1.041221314313041	-5.083225404883411	0	0	44.5834379877046	-10.3019195167183	0	59.65758684920181	1.041221314313041	-5.083225404883411	0	0	-11.39879375383367	10.99056888499207	2.370128390897069	10.34911740246301	-11.42542553167183	7.075590022934331	8.52061272888885	2.62986869307822	0	0	0	-10.38297428992171	0	87.41337650269892	2.62986869307822	0	0
0.83	-0.8383358707696763	-0.8491576157335824	-88.67163668319573	0	0.9399999998679526	0	44.58356696305265	-10.30159327966939	0	59.65767016777322	1.041222768496441	-5.083108134784837	0	0	44.58356696305265	-10.30159327966939	0	59.65767016777322	1.041222768496441	-5.083108134784837	0	0	-11.68904321751272	11.40097754572592	2.973970791685456	10.90038616899526	-12.1877776568824	5.859010545277244	8.287794989099593	2.629301523288234	0	0	0	-10.38370794734358	0	87.41393429427328	2.629301523288234	0	0
0.84	-0.5648385214836373	-0.5705432673427406	-87.39720669335107	0	0.9399999998679526	0	44.58369140157133	-10.30127918124217	0	59.65775064502726	1.041224173089497	-5.082995294926235	0	0	44.58369140157133	-10.30127918124217	0	59.65775064502726	1.041224173089497	-5.082995294926235	0	0	-12.05558353439151	11.85788474537295	3.859292858755667	11.47710579481097	-12.98223266719306	4.092276381761541	8.056431940760426	2.628754033299051	0	0	0	-10.38441642746901	0	87.41447273149436	2.628754033299051	0	0
0.85	-0.288249977195114	-0.286323811650907	-86.24504514148585	0	0.9399999998679526	0	44.58382783509668	-10.30093537660556	0	59.65783894599831	1.041225714232174	-5.082871845849415	0	0	44.58382783509668	-10.30093537660556	0	59.65783894599831	1.041225714232174	-5.082871845849415	0	0	-12.44702871181128	12.33138950482757	4.53769182379608	12.06313107117427	-13.77232950997114	2.421356179046255	7.960142507986651	2.628153552981158	0	0	0	-10.38519369860772	0	87.4150632828797	2.628153552981158	0	0
0.86	-0.05553028206346223	-0.06253936639649227	-85.52415386146599	0	0.9399999998679526	0	44.58398937665046	-10.30052882144969	0	59.65794353547717	1.041227539662943	-5.082725932314609	0	0	44.58398937665046	-10.30052882144969	0	59.65794353547717	1.041227539662943	-5.082725932314609	0	0	-12.94108339592598	12.78009427534026	5.339970735923603	12.51592281525996	-14.57877253478762	0.7980328949869231	8.086373220097729	2.627442407569647	0	0	0	-10.38611436467189	0	87.41576266953831	2.627442407569647	0	0
0.87	0.2186865656920639	0.2290703804028512	-88.77080470930156	0	0.9399999998679526	0	44.58445927806728	-10.299357068683	0	59.65824849225812	1.041232862162847	-5.082306782657288	0	0	44.58445927806728	-10.299357068683	0	59.65824849225812	1.041232862162847	-5.082306782657288	0	0	-14.2182313952346	12.23290892087577	9.852859684183818	13.00228544920483	-15.38927660686038	-0.5079883231175634	8.400193181757443	2.625371013942831	0	0	0	-10.38879827144745	0	87.41779981314282	2.625371013942831	0	0
0.88	0.5052322312858605	0.5313001973306852	-88.17893662225281	0	0.9399999998679526	0	44.58460455623585	-10.29899300988302	0	59.65834262755701	1.041234505133755	-5.082176339951145	0	0	44.58460455623585	-10.29899300988302	0	59.65834262755701	1.041234505133755	-5.082176339951145	0	0	-14.62886550993785	12.58163909229856	10.33967233539113	13.19886900549452	-16.25906764119986	-1.67775072466075	8.999137858203101	2.624731056316298	0	0	0	-10.38962713292352	0	87.41842918917104	2.624731056316298	0	0
0.89	0.8061859548064261	0.842216387149997	-87.56496999656453	0	0.9399999998679526	0	44.58475700092713	-10.29861055885895	0	59.6584412540729	1.041236226491187	-5.082039305782085	0	0	44.58475700092713	-10.29861055885895	0	59.6584412540729	1.041236226491187	-5.082039305782085	0	0	-15.04062327437702	12.86290848104919	11.06472732833614	13.34809421454301	-17.18376226755463	-2.927256820363882	9.731924207141722	2.624059875566142	0	0	0	-10.39049603083733	0	87.4190892720075	2.624059875566142	0	0
0.9	1.082660195265015	1.093081168276876	-89.30157382477836	0	0.9399999998679526	0	44.58523811638617	-10.29741850187454	0	59.65875397207437	1.041241684449943	-5.08161391103385	0	0	44.58523811638617	-10.29741850187454	0	59.65875397207437	1.041241684449943	-5.08161391103385	0	0	-16.07528006521463	12.48317381270481	14.35724828435115	13.47924100918678	-18.13719878007704	-4.26325164063514	10.40357351790272	2.621936854460416	0	0	0	-10.39324882703246	0	87.42117718979566	2.621936854460416	0	0
0.91	1.387320626290068	1.363487253720695	-90.93728944361395	0	0.9399999998679526	0	44.58542441488977	-10.29695511097719	0	59.65887496247679	1.041243796130829	-5.081448311369162	0	0	44.58542441488977	-10.29695511097719	0	59.65887496247679	1.041243796130829	-5.081448311369162	0	0	-16.91202710165113	11.97043933148913	17.42358232458783	13.38553398069173	-18.9974251226484	-5.274192888694493	11.22035712451818	2.621115115676763	0	0	0	-10.39431415026025	0	87.42198534142724	2.621115115676763	0	0
0.92	1.697995072697315	1.622336953353842	-92.3803026415184	0	0.9399999998679526	0	44.58557444668217	-10.29658244488091	0	59.65897244530858	1.041245497527207	-5.081315197010425	0	0	44.58557444668217	-10.29658244488091	0	59.65897244530858	1.041245497527207	-5.081315197010425	0	0	-17.67153752061832	11.58213179138534	19.63387839251312	13.55043804907631	-19.76064565118016	-5.447111373788638	11.74573536644416	2.620453169868695	0	0	0	-10.39517248508515	0	87.42263634222981	2.620453169868695	0	0
0.93	2.050232454611758	1.924755518726513	-93.54753848145617	0	0.9399999998679526	0	44.58574466230554	-10.29615734648612	0	59.65908250076241	1.041247418357236	-5.081163224155618	0	0	44.58574466230554	-10.29615734648612	0	59.65908250076241	1.041247418357236	-5.081163224155618	0	0	-18.2555102064685	11.12551921074107	21.67436239981987	13.73271231454407	-20.40084749797809	-5.752853621211853	12.07259768149301	2.619703531670723	0	0	0	-10.39614301467836	0	87.42337358527735	2.619703531670723	0	0
0.9399999999999999	2.349214301325731	2.17839945550259	-94.16772921194098	0	0.9399999998679526	0	44.58592412680459	-10.29570808562352	0	59.65919824117813	1.041249438408568	-5.081002573698191	0	0	44.58592412680459	-10.29570808562352	0	59.65919824117813	1.041249438408568	-5.081002573698191	0	0	-18.79504988160424	10.86534482979294	23.21270318859336	13.94337575590453	-21.12528548807693	-6.091566662262001	12.38007005623369	2.618913866790267	0	0	0	-10.39716456440174	0	87.42415019307759	2.618913866790267	0	0
0.95	2.604305814024755	2.441493316546579	-93.78106329789767	0	0.9399999998679526	0	44.58606273615104	-10.29536171518348	0	59.65928770834952	1.041250999905282	-5.080878782204884	0	0	44.58606273615104	-10.29536171518348	0	59.65928770834952	1.041250999905282	-5.080878782204884	0	0	-19.11846039285868	10.82643359011674	24.18304025321711	14.01998747869519	-21.75268790294894	-6.905493686358937	12.63615521929132	2.618303725492389	0	0	0	-10.39795412471041	0	87.42475024574848	2.618303725492389	0	0
0.96	2.725546849022277	2.574513007386667	-93.41118157108203	0	0.9399999998679526	0	44.58618698599059	-10.29505156505573	0	59.659367932751	1.041252400085228	-5.080767978992792	0	0	44.58618698599059	-10.29505156505573	0	59.659367932751	1.041252400085228	-5.080767978992792	0	0	-19.49693526061632	10.95525456779964	24.81778910630776	14.26548893102167	-22.26742699746614	-7.333536963501905	12.68206412200464	2.617756687841891	0	0	0	-10.39866212483362	0	87.42528823820145	2.617756687841891	0	0
0.97	3.093771868963717	2.943844061455713	-92.64041304458887	0	0.9399999998679526	0	44.58628022061191	-10.29481981700462	0	59.65942831208653	1.041253453903433	-5.080685263865001	0	0	44.58628022061191	-10.29481981700462	0	59.65942831208653	1.041253453903433	-5.080685263865001	0	0	-19.54418423447244	10.99736578266962	24.98660253977831	14.52239853635609	-22.78813834397396	-7.754615294205316	12.71313764307441	2.617345707482319	0	0	0	-10.39919456979034	0	87.42569242312399	2.617345707482319	0	0
